<svg width="114" height="36" viewBox="0 0 114 36" fill="none" xmlns="http://www.w3.org/2000/svg">
<path d="M49.2878 34.7718H28.7733V30.0686L40.9676 16.6194H29.1695V11.2131H49.2878V15.9158L37.0497 29.3655H49.2878V34.7718ZM67.0725 34.7718V21.6622C67.0725 20.0837 66.7206 18.8926 66.0162 18.0893C65.3119 17.2855 64.3135 16.8831 63.0227 16.8831C61.7303 16.8831 60.7111 17.2855 59.9629 18.0893C59.2143 18.8926 58.8404 20.0837 58.8404 21.6622V34.7718H52.149V11.2131H58.8404V14.5812C59.2216 14.08 59.6392 13.5997 60.0948 13.1424C60.5494 12.685 61.0562 12.2797 61.614 11.9255C62.1713 11.5712 62.7876 11.291 63.4627 11.0842C64.1378 10.8779 64.9001 10.7738 65.7519 10.7738C68.3055 10.7738 70.2788 11.5508 71.6729 13.1034C73.0665 14.6566 73.764 16.7955 73.764 19.5203V34.7718H67.0725ZM98.8788 24.4872C98.8637 24.7217 98.8418 25 98.8126 25.3216H82.3923C82.715 26.8461 83.3824 27.9963 84.3953 28.7719C85.4078 29.5489 86.6626 29.9367 88.1594 29.9367C89.2741 29.9367 90.2724 29.7465 91.153 29.3655C92.0335 28.985 92.9428 28.37 93.8822 27.5194L97.7121 30.904C96.5964 32.2815 95.2466 33.3582 93.6622 34.1343C92.0773 34.9104 90.213 35.2992 88.0713 35.2992C86.3102 35.2992 84.6737 35.0058 83.1628 34.42C81.6509 33.8341 80.345 32.9987 79.2444 31.9151C78.1438 30.831 77.2857 29.5489 76.669 28.0688C76.0527 26.5896 75.7451 24.9411 75.7451 23.1243C75.7451 21.4539 76.0308 19.784 76.6032 18.2898C77.1757 16.7955 77.9749 15.492 79.0025 14.3778C80.0291 13.265 81.2547 12.3853 82.6785 11.7411C84.1013 11.0968 85.6789 10.7738 87.4108 10.7738C89.3768 10.7738 91.079 11.1251 92.5174 11.8287C93.9552 12.5322 95.1517 13.4766 96.1053 14.6634C97.0588 15.8501 97.7632 17.213 98.2188 18.751C98.6734 20.2896 98.9007 21.8933 98.9007 23.5637C98.9007 23.8863 98.8929 24.2526 98.8788 24.4872ZM90.8005 17.5205C89.9492 16.5975 88.8195 16.1357 87.4108 16.1357C86.0021 16.1357 84.8645 16.5907 83.9991 17.4986C83.1331 18.407 82.568 19.623 82.3042 21.1469H92.3854C92.1795 19.6521 91.6514 18.443 90.8005 17.5205ZM108.453 16.9269V26.992C108.453 28.516 109.172 29.2779 110.61 29.2779C111.784 29.2779 112.884 28.9996 113.912 28.4425V33.8049C113.208 34.2156 112.43 34.545 111.578 34.7936C110.727 35.0423 109.744 35.1673 108.629 35.1673C107.602 35.1673 106.67 35.0574 105.834 34.8374C104.997 34.618 104.278 34.2297 103.677 33.6726C103.075 33.1164 102.605 32.3915 102.268 31.4971C101.93 30.6038 101.762 29.4682 101.762 28.0912V16.9269H98.944V11.2131H101.762V5.19184H108.453V11.2131H114V16.9269H108.453ZM16.0251 26.6728C13.4667 26.6728 11.3926 24.6935 11.3926 22.2519C11.3926 19.8103 13.4667 17.8309 16.0251 17.8309C18.583 17.8309 20.6571 19.8103 20.6571 22.2519C20.6571 24.6935 18.583 26.6728 16.0251 26.6728ZM16.0251 14.0683C11.2967 14.0683 7.44984 17.7394 7.44984 22.2519C7.44984 26.7643 11.2967 30.4355 16.0251 30.4355C19.3764 30.4355 22.2843 28.5909 23.694 25.9094L26.9991 30.8563C24.391 33.8808 20.44 35.8125 16.0251 35.8125C8.19021 35.8125 1.8161 29.7294 1.8161 22.2519C1.8161 14.7748 8.19021 8.69124 16.0251 8.69124C20.44 8.69124 24.391 10.6234 26.9991 13.6474L23.694 18.5944C22.2843 15.9129 19.3764 14.0683 16.0251 14.0683ZM29.0615 10.5674C25.4624 7.13227 20.7423 5.41861 16.0251 5.42541C11.3074 5.41861 6.58731 7.13227 2.98821 10.5674C1.99037 9.05763 1.03485 7.63589 0 6.08761C4.54876 2.18194 10.2877 0.20649 16.0251 0.1875C21.762 0.20649 27.5009 2.18194 32.0497 6.08761C31.0153 7.63589 30.0593 9.05763 29.0615 10.5674Z" fill="#E6341A"/>
</svg>
