<svg width="24" height="24" viewBox="0 0 24 24" fill="none" xmlns="http://www.w3.org/2000/svg">
<path d="M17.8999 1.76001C19.3566 1.76005 20.5694 2.88155 20.7153 4.302L20.73 4.59009C20.7202 6.10872 19.5582 7.32664 18.0649 7.41333C18.0635 7.41317 18.0622 7.41346 18.061 7.41333C18.0384 7.41082 18.0198 7.41053 18.0132 7.4104H17.8853C16.2574 7.35851 15.0699 6.11211 15.0698 4.59009C15.0698 3.02721 16.3451 1.76001 17.8999 1.76001ZM17.8999 2.25024C16.6138 2.25024 15.5698 3.29418 15.5698 4.58032C15.57 5.83922 16.5528 6.85863 17.8101 6.90942L18.0288 6.91821L18.0376 6.90845C19.2006 6.84748 20.1076 5.94514 20.2271 4.8147L20.2397 4.58521V4.58032C20.2397 3.29243 19.1942 2.25029 17.8999 2.25024Z" fill="#FFFAFA" stroke="#FFFAFA"/>
<path d="M16.8979 9.35193C18.3247 9.09818 19.7809 9.3427 20.8452 9.96619L21.0522 10.0961C21.826 10.6151 22.2202 11.313 22.2202 12.0101C22.2202 12.6998 21.8337 13.4068 21.0532 13.934C20.2356 14.4725 19.1548 14.7796 18.0103 14.7797C17.737 14.7797 17.4659 14.7638 17.1968 14.7289L16.9282 14.6879L16.9243 14.6869L16.8765 14.6742C16.7706 14.6329 16.7016 14.5198 16.7231 14.3939C16.7429 14.279 16.8417 14.1924 16.9624 14.1888L17.0161 14.1927C18.3464 14.4198 19.7818 14.18 20.7778 13.516L20.7769 13.515C21.3271 13.1514 21.7202 12.6273 21.7202 12.0101C21.7202 11.4623 21.404 11.0007 20.9712 10.6556L20.7798 10.515L20.7778 10.514L20.5854 10.3939C19.6644 9.85877 18.4189 9.65271 17.2349 9.80896L16.9829 9.84802L16.9741 9.849C16.865 9.87026 16.7499 9.80849 16.7065 9.69666L16.6929 9.64587C16.6713 9.51967 16.741 9.40667 16.8472 9.3656L16.894 9.35291L16.8979 9.35193Z" fill="#FFFAFA" stroke="#FFFAFA"/>
<path d="M5.96998 7.91C5.95998 7.91 5.94998 7.91 5.94998 7.91C4.14998 7.85 2.73998 6.39 2.72998 4.59C2.72998 2.75 4.22998 1.25 6.05998 1.25C7.88998 1.25 9.38998 2.75 9.38998 4.58C9.38998 6.39 7.97998 7.85 6.17998 7.91L5.96998 7.16L6.03998 7.91C6.01998 7.91 5.98998 7.91 5.96998 7.91ZM6.06998 6.41C6.12998 6.41 6.17998 6.41 6.23998 6.42C7.12998 6.38 7.90998 5.58 7.90998 4.59C7.90998 3.58 7.08998 2.75999 6.07998 2.75999C5.06998 2.75999 4.24998 3.58 4.24998 4.59C4.24998 5.57 5.00998 6.36 5.97998 6.42C5.98998 6.41 6.02998 6.41 6.06998 6.41Z" fill="#FFFAFA"/>
<path d="M5.96 15.28C4.73 15.28 3.55 14.95 2.64 14.35C1.76 13.76 1.25 12.91 1.25 12.01C1.25 11.12 1.76 10.27 2.64 9.68002C3.84 8.88002 5.53 8.57003 7.16 8.86003C7.57 8.93003 7.84 9.32002 7.77 9.73002C7.7 10.14 7.31 10.42 6.9 10.34C5.66 10.12 4.35 10.35 3.47 10.93C3 11.24 2.75 11.62 2.75 12.01C2.75 12.4 3.01 12.79 3.47 13.1C4.34 13.68 5.64 13.91 6.87 13.7C7.28 13.63 7.67 13.91 7.74 14.31C7.81 14.72 7.54 15.11 7.13 15.18C6.74 15.25 6.35 15.28 5.96 15.28Z" fill="#FFFAFA"/>
<path d="M11.9998 15.38C11.9698 15.38 11.9498 15.38 11.9198 15.38H11.8698C9.97982 15.32 8.56982 13.86 8.56982 12.06C8.56982 10.22 10.0698 8.72998 11.8998 8.72998C13.7298 8.72998 15.2298 10.23 15.2298 12.06C15.2198 13.87 13.8098 15.33 12.0098 15.39C12.0098 15.38 12.0098 15.38 11.9998 15.38ZM11.8998 10.22C10.8898 10.22 10.0698 11.04 10.0698 12.05C10.0698 13.04 10.8398 13.84 11.8298 13.88C11.8398 13.87 11.9198 13.87 12.0098 13.88C12.9798 13.83 13.7298 13.03 13.7398 12.05C13.7398 11.05 12.9198 10.22 11.8998 10.22Z" fill="#FFFAFA"/>
<path d="M11.9998 22.76C10.7998 22.76 9.59978 22.45 8.66978 21.82C7.78978 21.23 7.27979 20.39 7.27979 19.49C7.27979 18.6 7.77978 17.74 8.66978 17.15C10.5398 15.91 13.4698 15.91 15.3298 17.15C16.2098 17.74 16.7198 18.58 16.7198 19.48C16.7198 20.37 16.2198 21.23 15.3298 21.82C14.3998 22.44 13.1998 22.76 11.9998 22.76ZM9.49979 18.41C9.02979 18.72 8.77979 19.11 8.77979 19.5C8.77979 19.89 9.03979 20.27 9.49979 20.58C10.8498 21.49 13.1398 21.49 14.4898 20.58C14.9598 20.27 15.2098 19.88 15.2098 19.49C15.2098 19.1 14.9498 18.72 14.4898 18.41C13.1498 17.5 10.8598 17.51 9.49979 18.41Z" fill="#FFFAFA"/>
</svg>
