<svg width="24" height="24" viewBox="0 0 24 24" fill="none" xmlns="http://www.w3.org/2000/svg">
<path d="M12 1.77002C12.9645 1.77008 13.879 2.1203 14.5869 2.76123L14.7266 2.89307L21.1162 9.28369C21.8412 10.0087 22.2402 10.9812 22.2402 12.0103C22.2402 12.9751 21.8894 13.8901 21.248 14.5981L21.1162 14.7368L14.7266 21.1265C14.0011 21.8519 13.0384 22.2504 12 22.2505C11.0264 22.2505 10.1195 21.8999 9.41211 21.2583L9.27344 21.1265L2.88379 14.7368C2.15881 14.0118 1.75983 13.0392 1.75977 12.0103C1.75977 11.0455 2.10985 10.1304 2.75098 9.42236L2.88379 9.28369L9.27344 2.89307C9.99844 2.16821 10.971 1.77002 12 1.77002ZM12 2.25049C11.1548 2.25049 10.3571 2.55952 9.74609 3.11279L9.62598 3.22607L3.23633 9.6167C2.60029 10.2528 2.25983 11.1007 2.25977 11.9897C2.25977 12.8246 2.56837 13.631 3.12207 14.2437L3.23633 14.3638L9.62598 20.7534C10.8912 22.0187 13.1078 22.0186 14.373 20.7534L20.7637 14.3638C21.3991 13.7283 21.7402 12.8899 21.7402 11.9897C21.7402 11.1446 21.4303 10.3469 20.877 9.73584L20.7637 9.6167L14.373 3.22607C13.7486 2.60178 12.9013 2.25055 12 2.25049Z" fill="#E6341A" stroke="#E6341A"/>
<path d="M6.07373 6.07373C6.15669 5.99077 6.29213 5.98015 6.38818 6.04248L6.42627 6.07373L17.9263 17.5737C18.0209 17.6685 18.021 17.8315 17.9263 17.9263C17.875 17.9775 17.8141 17.9995 17.7495 17.9995C17.7012 17.9994 17.6553 17.9872 17.6138 17.9595L17.5737 17.9263L6.07373 6.42627C5.97899 6.33153 5.97899 6.16847 6.07373 6.07373Z" fill="#E6341A" stroke="#E6341A"/>
<path d="M6.24994 18.5C6.05994 18.5 5.86994 18.43 5.71994 18.28C5.42994 17.99 5.42994 17.5099 5.71994 17.2199L17.2199 5.71994C17.5099 5.42994 17.9899 5.42994 18.2799 5.71994C18.5699 6.00994 18.5699 6.49 18.2799 6.78L6.77994 18.28C6.62994 18.43 6.43994 18.5 6.24994 18.5Z" fill="#E6341A"/>
</svg>
